<svg xmlns="http://www.w3.org/2000/svg" viewBox="0 0 48 48" fill="none" role="img" aria-label="SilverLink">
  <title>SilverLink</title>
  <rect width="48" height="48" rx="11" fill="#1D9E75"/>
  <!-- Back bubble: community / second voice -->
  <path
    fill="#C5EBD8"
    d="M26.5 9.5H39a3.25 3.25 0 0 1 3.25 3.25v8.25A3.25 3.25 0 0 1 39 24.2h-4.9l-4.1 4.1V24.2h-3.5A3.25 3.25 0 0 1 23.25 21V12.75A3.25 3.25 0 0 1 26.5 9.5Z"
  />
  <!-- Front bubble: warm, easy-to-read -->
  <path
    fill="#FFFCF7"
    d="M7 17.25h19.75A4.25 4.25 0 0 1 31 21.5v10.5a4.25 4.25 0 0 1-4.25 4.25h-7.6l-5.4 5.4V36.2H7A4.25 4.25 0 0 1 2.75 32V21.5A4.25 4.25 0 0 1 7 17.25Z"
  />
  <!-- Typing / conversation dots -->
  <circle cx="14.5" cy="27" r="2.1" fill="#1D9E75"/>
  <circle cx="21.25" cy="27" r="2.1" fill="#1D9E75"/>
  <circle cx="28" cy="27" r="2.1" fill="#1D9E75"/>
</svg>
